<svg xmlns="http://www.w3.org/2000/svg" width="34" height="34" fill="none"><g clip-path="url(#a)"><path fill='currentColor' d="M16.894 8.454h.124c1.146.005 6.955.046 8.52.468a2.8 2.8 0 0 1 1.974 1.98c.14.53.24 1.231.307 1.955l.014.145.03.362.012.145c.09 1.275.102 2.469.103 2.73v.104c-.002.27-.014 1.545-.115 2.873l-.01.146-.013.145c-.07.798-.173 1.59-.328 2.173a2.8 2.8 0 0 1-1.973 1.98c-1.618.435-7.766.466-8.618.468h-.198c-.431 0-2.213-.009-4.082-.073l-.237-.008-.122-.006-.238-.01-.239-.01c-1.547-.068-3.021-.178-3.7-.362A2.8 2.8 0 0 1 6.13 21.68c-.155-.581-.258-1.375-.328-2.173l-.01-.146-.012-.145a44 44 0 0 1-.114-2.84v-.17c.003-.3.014-1.337.089-2.48l.01-.144.004-.073.011-.145.03-.362.015-.145c.067-.724.166-1.427.307-1.955a2.8 2.8 0 0 1 1.973-1.98c.679-.182 2.153-.293 3.7-.363l.238-.01.24-.008.12-.004.238-.01q1.99-.065 3.983-.071h.27zm-2.302 4.477v6.719l5.797-3.358z"></path></g><defs><clipPath id="a"><path fill='currentColor' d="M5.667 5.667H27.98V27.98H5.667z"></path></clipPath></defs></svg>