<?xml version="1.0" standalone="no"?>
<!DOCTYPE svg PUBLIC "-//W3C//DTD SVG 20010904//EN"
 "http://www.w3.org/TR/2001/REC-SVG-20010904/DTD/svg10.dtd">
<svg version="1.0" xmlns="http://www.w3.org/2000/svg"
 width="500.000000pt" height="500.000000pt" viewBox="0 0 500.000000 500.000000"
 preserveAspectRatio="xMidYMid meet">

<g transform="translate(0.000000,500.000000) scale(0.100000,-0.100000)"
fill="#ffffff" stroke="none">
<path d="M2280 4509 c-221 -28 -386 -86 -567 -200 -87 -55 -135 -94 -217 -179
-94 -97 -110 -120 -160 -222 -66 -133 -85 -200 -93 -323 -8 -131 12 -224 93
-420 3 -6 -42 -10 -123 -10 -153 -1 -207 -16 -350 -101 -127 -75 -241 -207
-284 -329 -82 -235 21 -496 233 -590 37 -17 68 -33 68 -36 0 -4 -16 -31 -36
-60 -86 -127 -119 -233 -112 -359 10 -169 117 -298 275 -330 31 -7 104 -11
162 -9 l105 4 30 -62 c17 -34 39 -71 50 -82 18 -20 18 -21 -27 -66 -79 -78
-119 -191 -98 -272 11 -39 76 -112 112 -126 10 -4 8 -9 -11 -23 -60 -42 -128
-120 -138 -158 -39 -141 163 -203 350 -107 55 28 57 29 64 9 9 -28 60 -48 97
-37 41 12 65 35 96 97 l26 52 38 -50 c39 -53 72 -69 105 -51 12 6 40 11 64 11
24 0 75 13 113 29 l70 28 3 -41 c7 -88 64 -99 202 -36 88 39 88 39 129 23 50
-20 83 -12 214 52 l87 42 0 -41 c0 -47 6 -58 37 -75 29 -15 49 -14 90 6 40 18
57 51 67 128 12 89 16 92 41 36 15 -32 36 -58 57 -71 61 -37 162 -21 248 40
15 11 30 20 32 20 1 0 3 -15 4 -34 1 -52 18 -66 80 -66 99 0 124 30 124 150
l0 55 30 -51 c45 -79 84 -114 129 -114 60 0 77 27 105 166 14 65 39 180 55
255 49 218 43 242 -71 261 -106 19 -135 -9 -139 -127 -1 -22 -4 -53 -8 -69 -6
-27 -8 -25 -34 40 -15 38 -30 74 -33 79 -2 6 6 15 17 20 13 6 27 26 34 50 6
22 34 81 61 132 37 70 53 91 65 87 25 -7 69 35 132 129 220 328 409 738 452
981 20 117 19 187 -4 279 -25 97 -52 148 -109 209 -106 114 -269 149 -548 117
-53 -6 -98 -8 -101 -6 -2 3 4 40 13 83 12 55 17 123 17 219 0 123 -4 154 -31
258 -78 301 -294 541 -612 684 -210 94 -517 135 -770 102z m350 -190 c331 -41
588 -187 747 -424 53 -79 107 -224 124 -335 38 -248 -81 -635 -235 -763 -50
-41 -91 -61 -146 -70 -38 -6 -29 -1 40 23 25 8 44 21 43 27 -2 7 9 19 25 27
15 8 36 25 47 37 l20 24 -25 -21 c-27 -23 -80 -52 -120 -65 -19 -7 -15 -7 15
-4 55 8 25 -12 -33 -21 -49 -7 -66 1 -31 15 l24 10 -24 0 c-20 1 -21 3 -11 16
7 8 18 15 26 15 17 0 80 78 99 123 8 20 15 65 15 99 0 52 -6 77 -35 137 -35
72 -60 184 -53 238 3 27 5 26 30 -22 15 -27 27 -46 28 -42 1 16 -32 83 -51
103 -19 21 -19 21 11 87 41 91 42 172 2 238 -30 52 -130 165 -117 134 4 -11 8
-27 9 -35 1 -8 12 -41 24 -73 12 -32 22 -79 22 -105 0 -27 5 -53 11 -59 14
-14 -7 -57 -23 -47 -7 4 -8 3 -4 -5 4 -6 -4 -40 -18 -75 -19 -48 -26 -82 -26
-133 0 -81 16 -120 89 -217 28 -38 51 -74 51 -80 0 -6 -8 3 -18 19 -11 17 -27
37 -37 45 -18 15 -18 14 -1 -12 10 -16 15 -28 12 -28 -3 0 6 -18 20 -40 18
-28 24 -47 20 -64 -11 -46 -70 -110 -125 -138 -77 -39 -201 -39 -353 1 -118
31 -134 26 -33 -10 64 -23 64 -24 37 -36 -22 -11 -23 -12 -4 -7 13 3 34 3 47
0 22 -6 23 -9 13 -43 -5 -20 -7 -54 -4 -76 l7 -39 -27 31 c-14 17 -31 31 -36
31 -6 0 -4 -8 4 -17 20 -23 43 -67 31 -60 -5 3 -23 -1 -39 -9 -27 -14 -30 -14
-45 5 -24 29 -30 26 -14 -5 18 -36 11 -49 -30 -51 -27 -1 -35 2 -35 15 -1 9
-7 28 -14 41 -10 18 -14 20 -19 9 -3 -8 -1 -21 4 -29 22 -35 11 -44 -56 -44
-63 0 -65 1 -66 25 0 14 -3 19 -6 12 -3 -9 -13 2 -24 27 -10 23 -21 41 -24 41
-3 0 1 -13 10 -30 8 -16 15 -33 15 -37 0 -5 -28 -9 -62 -8 -35 0 -71 -4 -80
-9 -15 -7 -18 -3 -19 20 0 16 -5 38 -10 49 -7 15 -8 10 -5 -22 4 -40 3 -42
-16 -32 -11 6 -42 9 -69 7 l-49 -3 -1 35 c0 33 -1 34 -10 11 -5 -14 -7 -37 -4
-52 l6 -27 -63 4 -63 3 2 48 c1 35 -1 42 -7 28 -5 -11 -9 -39 -9 -61 l-1 -41
-52 3 c-51 3 -53 4 -51 31 8 112 8 123 -10 140 -16 16 -18 16 -12 1 6 -14 1
-17 -22 -16 -15 0 -64 -3 -109 -7 l-80 -8 -39 34 c-68 60 -85 148 -42 230 20
39 22 52 16 124 -5 53 -19 112 -42 175 -51 137 -58 171 -58 274 1 268 181 518
482 670 199 101 479 145 719 115z m-1317 -1456 c5 -85 35 -166 80 -219 33 -40
143 -95 201 -101 25 -3 46 -7 46 -9 0 -2 -5 -26 -11 -53 -19 -90 22 -217 104
-321 20 -24 35 -46 33 -47 -2 -2 -58 9 -125 23 -192 41 -190 21 18 -200 l24
-26 -64 26 c-113 46 -128 49 -144 33 -8 -8 -16 -25 -17 -38 -3 -26 -2 -27 150
-71 42 -13 72 -27 72 -35 0 -8 -25 -21 -57 -30 -32 -9 -69 -27 -83 -40 -14
-13 -47 -29 -74 -35 -68 -15 -95 -31 -146 -87 -43 -48 -48 -50 -111 -57 -158
-16 -259 50 -259 167 0 59 34 169 60 192 11 10 17 22 14 27 -3 4 -1 7 4 6 6
-2 57 44 114 102 56 58 127 123 155 145 34 26 69 67 98 114 25 40 44 75 42 77
-2 2 -55 -12 -118 -30 -225 -66 -335 -68 -443 -8 -129 73 -156 259 -53 372
121 132 253 193 433 199 l51 1 6 -77z m2732 13 c53 -23 92 -61 106 -105 16
-46 15 -187 -1 -271 -24 -130 -146 -413 -271 -629 l-31 -53 -21 21 c-33 30
-96 53 -152 55 -27 1 -60 7 -72 14 -12 7 -37 12 -57 12 -19 0 -37 3 -39 8 -3
4 35 79 84 167 91 164 103 202 75 241 -11 14 -30 20 -79 24 l-65 5 43 130 c24
72 42 130 42 131 -1 1 -36 4 -77 7 l-75 6 -28 -53 c-30 -57 -72 -104 -84 -93
-3 4 -1 42 5 85 10 61 17 81 36 94 13 10 52 57 86 105 35 49 67 92 71 97 14
16 129 24 299 22 132 -2 173 -5 205 -20z m-1035 -89 c0 -1 -7 -24 -15 -51 -8
-28 -15 -88 -15 -137 0 -87 -12 -145 -28 -135 -12 7 -64 -48 -55 -58 4 -4 -1
-4 -11 0 -12 4 -17 4 -13 -2 3 -5 -2 -11 -11 -12 -130 -13 -184 -31 -292 -92
-52 -29 -132 -41 -240 -36 l-95 5 48 -16 c45 -16 61 -31 35 -35 -7 -1 -53 -2
-103 -3 -49 -1 -109 -5 -132 -9 -34 -7 -48 -5 -70 9 l-27 18 34 13 35 12 -41
1 c-29 1 -44 -4 -48 -14 -13 -34 -101 -7 -125 38 -14 26 -12 72 4 72 5 0 13
-13 16 -30 6 -29 7 -29 8 8 1 33 4 37 29 37 15 0 34 5 42 10 12 7 16 3 21 -18
l7 -27 1 27 c1 32 3 34 64 42 36 6 47 4 47 -6 0 -8 7 -23 15 -34 14 -18 14
-17 5 9 -5 16 -10 32 -10 36 0 4 31 7 70 7 38 -1 65 -2 60 -4 -6 -2 -10 -8
-10 -13 0 -5 14 -2 32 7 27 14 49 16 128 10 52 -3 104 -8 115 -10 11 -2 35 3
53 10 18 7 49 14 68 16 19 1 34 6 34 10 0 4 6 8 14 8 8 0 21 6 28 13 18 18 95
57 101 51 9 -9 30 27 33 57 2 17 -3 58 -11 90 -9 33 -13 74 -9 96 l6 38 104
-3 c57 -2 104 -4 104 -5z m-266 -199 c17 -39 12 -55 -24 -73 -26 -14 -29 -13
-45 11 -21 32 -13 72 18 84 34 14 37 12 51 -22z m562 -3 c-3 -13 -9 -52 -13
-85 l-6 -60 32 0 c18 0 31 -3 29 -8 -33 -76 -45 -93 -63 -97 -11 -2 -72 -13
-135 -24 -63 -12 -126 -24 -140 -28 -22 -6 -20 -2 14 33 47 47 82 121 91 192
5 39 11 52 23 53 10 0 49 11 87 24 89 30 88 30 81 0z m-1123 4 c36 -20 42 -31
39 -69 -2 -21 1 -47 7 -58 9 -17 8 -22 -9 -27 -11 -3 -40 -3 -65 1 -54 8 -75
32 -75 86 0 63 49 95 103 67z m178 -19 c25 -14 49 -62 49 -100 l0 -30 -75 0
c-63 0 -76 3 -85 19 -17 32 -12 99 8 110 22 13 78 14 103 1z m-316 -18 c17
-12 35 -116 21 -124 -19 -13 -93 -9 -105 5 -17 22 -23 70 -12 100 9 23 16 27
48 27 21 0 43 -4 48 -8z m475 -12 c16 -8 40 -64 40 -92 0 -13 -65 -28 -97 -22
-29 5 -33 10 -33 38 0 17 -3 41 -6 53 -4 15 -1 22 13 26 32 8 64 7 83 -3z
m130 -10 c33 -33 26 -58 -20 -70 -22 -6 -44 -8 -49 -6 -11 7 -24 74 -16 86 11
17 64 11 85 -10z m137 -2 c-3 -8 -6 -5 -6 6 -1 11 2 17 5 13 3 -3 4 -12 1 -19z
m-971 -27 c1 -22 10 -58 21 -80 19 -38 19 -41 3 -41 -36 0 -58 60 -46 125 9
47 21 45 22 -4z m98 33 c10 -4 16 -18 16 -35 0 -16 7 -45 14 -64 16 -38 16
-37 -39 -37 -8 0 -20 0 -26 1 -15 2 -39 65 -39 106 0 32 2 35 29 35 16 0 36
-3 45 -6z m1036 -87 c0 -2 -10 -12 -22 -23 l-23 -19 19 23 c18 21 26 27 26 19z
m-345 -197 c-3 -5 -12 -10 -18 -10 -7 0 -6 4 3 10 19 12 23 12 15 0z m25 -45
c0 -28 -8 -31 -92 -40 -72 -8 -108 4 -108 34 0 15 13 19 93 27 50 5 95 8 100
6 4 -2 7 -14 7 -27z m887 27 c8 -5 -10 -21 -53 -45 -39 -23 -62 -42 -58 -49 4
-7 3 -8 -5 -4 -6 4 -44 -13 -84 -38 -80 -50 -100 -56 -95 -28 2 11 54 43 148
89 80 40 142 73 139 73 -9 0 -208 -84 -257 -109 -32 -16 -42 -18 -42 -8 0 8
31 26 73 41 39 15 104 40 142 56 82 33 77 32 92 22z m73 5 c0 -2 -12 -14 -27
-28 l-28 -24 24 28 c23 25 31 32 31 24z m-587 -56 c113 -11 152 -28 144 -67
-4 -23 -3 -24 13 -9 21 19 25 12 35 -58 7 -44 -5 -71 -21 -46 -5 8 -3 9 7 4 8
-5 11 -4 6 0 -4 5 -15 10 -25 12 -92 16 -90 16 -123 -16 -29 -30 -31 -35 -27
-89 3 -31 9 -65 13 -76 8 -17 7 -17 -26 -1 -19 10 -55 35 -81 56 -63 53 -87
63 -121 50 -29 -11 -57 -61 -57 -101 0 -39 29 -78 66 -92 l37 -13 -54 -17
c-30 -9 -44 -17 -33 -17 31 -1 103 26 147 55 32 21 48 25 103 23 35 -1 64 -4
64 -5 0 -9 -85 -38 -190 -64 -156 -39 -323 -60 -486 -60 -159 0 -228 13 -409
75 l-130 45 90 -6 c61 -4 100 -12 121 -25 42 -26 66 -24 95 7 45 48 25 141
-35 163 -12 5 -34 0 -57 -11 -45 -21 -52 -22 -44 -5 4 6 1 5 -7 -4 -16 -19
-58 -42 -64 -36 -3 3 -2 32 2 65 4 40 10 59 18 56 7 -3 12 6 11 23 0 23 7 32
38 47 51 24 190 62 258 69 l54 6 -64 -14 c-211 -49 -292 -96 -213 -126 37 -15
370 -27 405 -16 16 5 53 7 84 4 35 -4 90 1 155 14 56 11 106 18 112 15 6 -2 0
-5 -14 -5 -20 -1 -22 -3 -10 -12 11 -7 6 -8 -19 -4 -22 5 -31 4 -27 -3 3 -6 0
-13 -6 -16 -7 -3 -2 -3 12 -1 14 3 55 9 92 15 37 6 77 15 90 20 20 9 19 10 -9
5 -92 -15 -99 -15 -73 -6 l25 9 -25 2 c-14 1 15 12 63 26 89 24 171 64 180 87
6 16 -17 49 -28 39 -5 -4 -6 -2 -2 3 3 6 -10 11 -31 12 -21 2 -89 6 -152 11
-97 8 -104 9 -45 10 39 1 114 -3 168 -7z m487 -38 c-89 -97 -165 -173 -175
-173 -5 0 37 47 95 105 104 104 145 139 80 68z m-830 -31 c0 -25 -63 -52 -120
-52 -30 0 -60 4 -67 8 -11 7 -33 54 -33 71 0 5 31 6 68 3 50 -3 76 0 98 11 27
14 30 14 41 -6 7 -12 12 -28 13 -35z m-277 11 c-7 -2 -19 -2 -25 0 -7 3 -2 5
12 5 14 0 19 -2 13 -5z m-612 -73 c79 -28 145 -53 148 -56 3 -2 0 -9 -6 -15
-8 -8 -39 1 -109 31 -102 43 -194 89 -182 90 3 0 71 -23 149 -50z m1539 9
c-30 -26 -84 -62 -70 -46 10 11 95 76 100 76 3 0 -11 -13 -30 -30z m-1530 -65
c0 -3 -5 -2 -12 2 -7 5 -8 3 -4 -5 5 -7 15 -10 23 -7 8 3 12 2 9 -2 -3 -5 22
-23 55 -41 47 -26 59 -37 59 -56 0 -22 -11 -16 -122 66 -178 130 -181 133 -90
89 45 -22 82 -43 82 -46z m886 64 c4 -7 3 -8 -4 -4 -7 4 -12 1 -12 -8 0 -10 6
-13 15 -10 9 4 15 0 15 -9 0 -20 -14 -24 -109 -32 l-81 -8 -10 28 c-6 15 -9
29 -7 31 2 2 28 -1 58 -6 50 -8 84 0 126 29 1 0 5 -4 9 -11z m439 -55 c-68
-17 -88 -131 -29 -169 30 -20 62 -13 104 23 28 23 32 24 28 7 -2 -10 -25 -34
-51 -51 -47 -32 -49 -32 -72 -15 -39 28 -55 66 -55 125 0 46 4 59 22 71 12 9
34 15 48 15 20 -1 21 -2 5 -6z m-20 -80 c0 -51 3 -59 25 -70 18 -9 20 -13 8
-13 -43 0 -73 70 -52 124 12 31 19 15 19 -41z m78 40 c-7 -2 -21 -2 -30 0 -10
3 -4 5 12 5 17 0 24 -2 18 -5z m-1232 -110 c-9 -16 -10 -15 -11 7 0 14 4 43 8
65 l7 40 3 -47 c2 -26 -2 -56 -7 -65z m1292 100 c-7 -2 -19 -2 -25 0 -7 3 -2
5 12 5 14 0 19 -2 13 -5z m-1318 -21 c-3 -3 -11 0 -18 7 -9 10 -8 11 6 5 10
-3 15 -9 12 -12z m951 -17 c17 -14 17 -14 -10 -3 -25 11 -30 10 -47 -11 -39
-47 -19 -120 36 -134 18 -4 17 -5 -3 -6 -37 -2 -72 41 -72 89 0 66 50 100 96
65z m409 -6 c-49 -10 -108 -18 -130 -17 l-40 1 40 7 40 7 -42 2 c-24 0 -43 4
-43 9 0 4 60 8 133 8 l132 2 -90 -19z m-1108 -35 c25 -39 22 -90 -8 -120 -21
-20 -29 -23 -50 -15 l-24 10 26 0 c14 1 30 6 37 13 17 17 15 89 -4 116 -8 12
-10 22 -5 22 6 0 18 -12 28 -26z m703 10 l25 -15 -25 7 c-17 4 -22 3 -15 -4
12 -12 98 -42 123 -42 9 0 26 -7 36 -15 18 -14 14 -15 -50 -14 -95 1 -157 11
-162 28 -4 11 3 12 29 8 19 -4 54 -9 79 -12 32 -3 24 0 -27 13 -81 19 -91 25
-73 47 15 19 28 19 60 -1z m-730 -19 c18 -22 8 -28 -83 -47 l-82 -16 65 4 c36
3 75 7 88 10 19 4 23 1 20 -13 -3 -16 -18 -18 -158 -20 -85 -1 -149 1 -142 4
97 40 242 92 258 92 12 1 27 -6 34 -14z m1102 -61 c4 -3 0 -21 -8 -39 -19 -47
-18 -52 8 -20 43 54 177 89 192 49 7 -19 -1 -34 -18 -34 -8 0 -19 -7 -26 -15
-7 -8 -20 -15 -30 -15 -9 0 -39 -11 -66 -25 -40 -21 -59 -25 -99 -21 l-50 5
35 -15 c19 -9 36 -17 38 -19 2 -1 -7 -20 -20 -41 -17 -29 -22 -52 -21 -95 l1
-57 -48 -26 c-53 -29 -64 -32 -55 -13 4 6 0 4 -9 -7 -8 -10 -26 -19 -39 -20
-14 0 -23 -5 -19 -10 3 -5 -2 -7 -11 -3 -9 3 -19 2 -23 -4 -3 -6 -12 -8 -20
-5 -8 3 -14 1 -14 -4 0 -5 -8 -9 -17 -8 -10 0 -58 -4 -107 -10 -58 -6 -113 -6
-160 0 -39 6 -83 11 -98 11 -15 1 -33 8 -40 15 -6 6 -18 12 -25 12 -7 0 -16
12 -19 27 -5 19 -2 30 11 40 23 16 59 16 180 1 164 -20 352 14 447 81 53 37
56 56 5 29 -37 -21 -52 -22 -137 -18 -52 2 -160 4 -240 4 -141 -1 -160 3 -160
31 0 6 5 3 11 -5 9 -12 10 -11 6 6 -4 20 1 22 55 28 33 4 56 11 53 17 -4 5 2
9 12 9 46 0 345 84 411 115 41 19 78 33 82 30 5 -3 12 0 16 6 5 8 3 9 -6 4 -9
-5 -11 -4 -6 3 8 13 19 15 28 6z m222 -29 c3 -8 1 -15 -4 -15 -6 0 -10 7 -10
15 0 8 2 15 4 15 2 0 6 -7 10 -15z m60 -63 c42 -13 58 -13 113 -2 58 11 66 11
83 -5 22 -20 25 -46 9 -76 -10 -19 -11 -19 -31 6 -16 20 -23 23 -29 14 -4 -8
-3 -20 4 -28 7 -8 -1 -5 -18 7 -16 11 -43 24 -60 27 l-30 7 25 -21 c14 -11 28
-21 32 -21 14 0 48 -80 48 -112 0 -26 -3 -30 -11 -18 -9 12 -10 11 -6 -7 3
-13 1 -23 -5 -23 -5 0 -6 -5 -3 -11 10 -15 -34 -59 -80 -80 -39 -17 -39 -18
-11 -18 23 -1 27 -4 21 -18 -4 -10 -9 -44 -12 -75 -3 -32 -9 -58 -14 -58 -5 0
-23 -13 -41 -28 -28 -24 -40 -28 -77 -24 -41 4 -43 5 -37 33 5 29 -18 124 -36
147 -8 9 -5 12 8 13 11 0 3 5 -16 11 -106 30 -166 144 -126 239 29 69 91 108
174 110 26 1 39 3 30 6 -21 5 -24 19 -5 26 13 6 27 3 101 -21z m-1439 -47 c39
-14 77 -28 85 -32 16 -6 31 -9 73 -11 l27 -2 -27 -30 c-14 -16 -31 -30 -36
-30 -6 0 0 12 14 28 15 17 9 14 -14 -8 -37 -34 -40 -35 -120 -34 -105 1 -167
31 -167 80 0 26 57 77 80 70 8 -3 47 -16 85 -31z m-298 -26 c26 -13 56 -19 73
-17 24 4 30 1 30 -13 0 -10 -4 -21 -10 -24 -5 -3 -10 2 -10 11 0 13 -3 15 -11
7 -23 -23 -1 -60 48 -85 43 -20 63 -23 183 -24 112 -1 136 -4 138 -17 2 -9 -8
-19 -25 -25 -18 -7 -22 -11 -10 -11 16 -1 16 -3 2 -31 -9 -16 -23 -30 -33 -30
-9 0 -41 -3 -71 -7 -32 -3 -52 -2 -49 3 3 5 -18 10 -47 11 -109 3 -184 62
-205 160 -6 29 -17 57 -25 63 -11 9 -12 7 -8 -12 5 -19 3 -21 -8 -10 -24 22
-31 13 -11 -15 32 -46 31 -56 -9 -100 -43 -47 -56 -93 -40 -149 9 -33 8 -41
-6 -51 -9 -7 -27 -13 -40 -13 -13 0 -23 -4 -23 -10 0 -5 -23 -10 -51 -10 -49
0 -50 1 -47 28 2 20 -3 31 -23 43 -56 36 -77 144 -39 206 27 45 53 55 148 62
l83 6 -22 24 c-22 23 -22 24 -4 37 27 20 72 17 122 -7z m748 -58 c37 -54 31
-72 -31 -91 l-51 -15 0 -49 c0 -32 -5 -53 -15 -60 -21 -15 -40 -55 -35 -70 4
-9 -3 -12 -21 -9 l-27 4 25 -13 c26 -15 27 -20 12 -80 -6 -23 -6 -40 0 -46 6
-6 -1 -8 -19 -6 -27 4 -27 4 -5 -7 12 -7 22 -18 22 -25 0 -23 -37 -77 -44 -65
-10 15 -73 13 -121 -4 -21 -8 -40 -13 -42 -11 -1 1 -3 27 -3 57 0 81 0 102 -1
127 -1 13 6 31 14 40 8 10 15 39 15 69 1 55 12 84 44 120 19 20 19 23 4 45
-24 33 -20 45 27 88 l42 40 91 0 91 0 28 -39z m280 -71 c-27 -3 -63 -3 -80 1
-20 5 -3 7 50 7 72 -1 75 -1 30 -8z m-1020 -52 c8 -18 6 -29 -9 -51 -17 -24
-18 -29 -5 -41 40 -38 196 -48 319 -21 36 8 71 14 78 15 18 0 14 -48 -5 -59
-14 -8 -14 -10 -3 -11 35 0 -11 -19 -84 -34 -94 -19 -125 -20 -71 0 26 9 29
11 10 7 -39 -8 -217 -12 -187 -4 21 5 19 7 -13 17 -29 9 -33 9 -24 -2 22 -26
-9 -15 -45 16 -40 35 -52 74 -36 116 11 28 48 74 59 74 4 0 11 -10 16 -22z
m1444 -80 c28 -31 28 -33 13 -64 -14 -30 -36 -44 -70 -44 -9 0 -10 5 -2 19 19
36 10 43 -16 12 -54 -64 -330 -112 -506 -89 -26 4 -86 19 -133 34 -69 23 -87
33 -91 51 -7 27 11 53 36 53 10 0 60 -13 111 -29 126 -38 248 -55 354 -49 74
5 98 11 162 43 50 25 81 47 92 66 9 16 17 29 19 29 1 0 15 -14 31 -32z m-1475
-129 c14 -7 26 -21 28 -32 7 -44 101 -42 272 8 48 14 88 25 90 25 15 0 -11
-43 -33 -55 -14 -8 -22 -14 -18 -15 5 0 18 5 29 11 16 9 19 8 16 -3 -2 -7 -42
-28 -89 -46 -70 -27 -93 -31 -134 -26 -27 3 -72 7 -100 8 -27 1 -60 8 -71 14
-31 16 -47 62 -35 95 12 31 12 31 45 16z m1583 -25 c17 -44 -81 -123 -191
-154 l-61 -17 -26 -139 c-15 -76 -34 -192 -44 -258 -19 -131 -33 -156 -85
-156 -40 0 -46 19 -31 94 13 66 21 356 10 356 -3 0 -49 -15 -100 -34 -78 -28
-95 -38 -102 -60 -5 -15 -7 -29 -4 -32 2 -3 39 5 81 16 43 12 81 19 84 15 10
-10 -53 -61 -124 -101 -47 -26 -63 -41 -67 -62 -3 -15 -4 -28 -3 -30 2 -1 29
9 62 24 70 31 137 37 142 12 6 -31 -60 -89 -152 -134 -49 -24 -102 -44 -117
-44 l-28 0 39 38 c69 65 59 137 -20 146 -33 3 -35 5 -32 36 2 18 10 55 17 83
7 28 11 56 8 63 -9 23 16 52 64 75 38 18 65 23 133 24 47 0 102 -4 123 -9 33
-7 37 -6 37 11 0 35 -45 48 -167 48 -123 0 -150 10 -120 43 41 45 152 79 462
138 147 28 203 30 212 8z m-779 -24 c50 -16 101 -30 114 -30 42 0 39 -11 -8
-36 l-46 -24 -30 25 c-27 23 -38 25 -100 23 -75 -2 -88 5 -80 48 6 33 38 32
150 -6z m-942 -1 c111 -20 138 -76 88 -177 -27 -54 -62 -86 -107 -97 -25 -7
-27 -5 -27 24 0 44 -32 73 -77 69 -70 -6 -96 -86 -39 -123 13 -9 63 -22 110
-30 103 -16 130 -31 146 -81 31 -92 -64 -235 -200 -305 -65 -33 -202 -39 -247
-10 -65 41 -37 112 77 196 26 19 50 35 54 35 3 0 6 -21 6 -47 0 -56 21 -83 65
-83 43 0 89 48 89 94 0 47 -17 64 -83 82 -104 28 -140 45 -171 80 -25 29 -30
43 -30 87 1 122 103 249 230 283 57 16 47 16 116 3z m2283 -5 c21 -4 33 -14
37 -29 3 -12 -12 -100 -34 -196 -22 -96 -45 -211 -52 -257 -26 -172 -86 -149
-194 72 -62 127 -61 129 -72 -74 -3 -69 -11 -131 -16 -137 -6 -7 -26 -15 -46
-19 -28 -5 -38 -3 -49 12 -20 28 -6 110 29 164 64 99 76 244 27 343 l-24 48
25 19 c30 23 67 25 90 5 9 -8 43 -86 75 -174 33 -88 63 -157 67 -155 4 3 8 33
8 67 0 74 19 297 26 309 6 10 59 10 103 2z m-1349 -84 c11 -11 20 -25 20 -31
0 -5 -36 -94 -81 -197 -69 -159 -112 -272 -105 -272 1 0 29 10 61 21 33 12 85
22 115 23 48 1 55 -2 58 -19 2 -12 -7 -30 -21 -43 -32 -30 -254 -125 -297
-126 l-35 -1 3 49 c1 28 9 59 17 70 64 86 66 91 60 121 -16 77 -17 100 -5 157
16 85 55 196 77 220 20 23 69 47 96 48 9 0 26 -9 37 -20z m886 -6 c84 -40 107
-191 48 -314 -43 -89 -93 -143 -166 -179 -81 -41 -120 -41 -163 2 -43 43 -60
116 -44 200 21 117 107 243 193 283 60 28 86 30 132 8z m-1340 -29 c4 -8 -2
-27 -12 -43 -21 -32 -127 -164 -166 -208 l-29 -30 27 -40 c50 -73 104 -166
104 -178 0 -7 -13 -25 -29 -40 -46 -44 -67 -34 -120 61 -25 45 -48 80 -51 78
-4 -2 -17 -36 -31 -75 -38 -113 -97 -168 -137 -128 -19 19 -14 37 22 81 80 99
101 190 58 259 -33 54 -30 131 7 190 45 70 103 101 118 62 3 -9 -4 -58 -16
-108 -12 -50 -21 -97 -21 -105 0 -22 34 13 108 113 65 87 109 126 145 126 10
0 20 -7 23 -15z m224 -80 c5 -14 7 -31 4 -39 -3 -8 -43 -28 -89 -45 -72 -27
-83 -35 -88 -59 -3 -15 -4 -28 -2 -30 1 -1 37 7 79 18 43 12 81 19 84 15 11
-11 -63 -69 -133 -105 -36 -18 -65 -38 -65 -44 0 -6 -3 -22 -7 -34 l-6 -24 53
27 c66 33 160 46 160 21 0 -29 -68 -93 -138 -129 -73 -38 -147 -59 -124 -36
20 21 14 68 -15 121 -26 48 -26 51 -14 121 6 40 13 86 14 103 1 17 8 38 15 46
24 29 188 93 250 97 7 1 17 -10 22 -24z m-790 -51 c0 -24 -14 -30 -44 -18 -19
7 -21 41 -3 47 25 8 47 -5 47 -29z m450 -151 c0 -20 -3 -24 -11 -16 -7 7 -9
19 -6 27 10 24 17 19 17 -11z m-489 -93 c23 -13 25 -47 2 -72 -34 -37 -61 -8
-48 52 7 32 15 36 46 20z"/>
<path d="M2938 4003 c7 -3 16 -2 19 1 4 3 -2 6 -13 5 -11 0 -14 -3 -6 -6z"/>
<path d="M2978 3993 c7 -3 16 -2 19 1 4 3 -2 6 -13 5 -11 0 -14 -3 -6 -6z"/>
<path d="M2364 3911 c-27 -17 -74 -70 -74 -84 0 -3 15 10 33 28 18 18 52 38
75 45 99 26 286 -31 412 -126 l75 -57 -50 52 c-119 123 -375 201 -471 142z"/>
<path d="M1699 3821 c-26 -10 -63 -30 -82 -45 -47 -36 -125 -152 -132 -196
l-6 -35 16 35 c28 61 86 138 124 164 91 63 210 88 269 57 13 -7 22 -8 22 -2 0
20 -59 41 -112 41 -29 -1 -74 -9 -99 -19z"/>
<path d="M2455 3749 c-22 -11 -53 -35 -70 -51 l-30 -31 33 22 c19 14 53 24 85
27 l52 5 -30 -17 c-95 -53 -146 -128 -166 -242 -22 -121 27 -309 99 -384 56
-59 148 -82 233 -58 66 18 259 162 259 192 0 6 -8 4 -18 -5 -28 -26 -31 -21
-16 30 20 66 17 196 -5 262 l-19 54 25 -29 24 -29 -22 45 c-48 98 -141 177
-247 210 -82 26 -137 25 -187 -1z m-1 -121 c-4 -7 -14 -21 -22 -31 -19 -22
-10 -32 16 -18 38 20 82 13 113 -18 16 -16 29 -36 29 -45 0 -36 -22 -68 -56
-82 -45 -19 -87 -11 -114 23 l-20 25 -11 -28 c-10 -23 -13 -25 -16 -12 -7 28
26 130 53 166 25 31 42 44 28 20z m287 -378 c28 -15 24 -44 -12 -85 -36 -40
-61 -44 -83 -13 -46 65 24 136 95 98z"/>
<path d="M3341 3707 c-1 -4 5 -23 13 -42 20 -47 45 -173 55 -280 l8 -90 2 82
c1 100 -20 217 -53 286 -13 29 -25 48 -25 44z"/>
<path d="M3250 3588 c28 -53 64 -131 81 -175 22 -58 28 -68 24 -38 -4 22 -7
48 -6 58 0 9 -5 17 -10 17 -6 0 -7 4 -4 10 3 5 -2 27 -12 47 -10 21 -18 43
-18 48 -1 6 -7 9 -14 7 -7 -1 -10 2 -6 7 3 6 -1 24 -10 41 -17 33 -27 40 -19
13 4 -15 2 -14 -10 2 -43 57 -43 52 4 -37z m24 6 c3 -8 2 -12 -4 -9 -6 3 -10
10 -10 16 0 14 7 11 14 -7z"/>
<path d="M1755 3651 c-46 -12 -87 -36 -121 -73 -54 -60 -59 -74 -8 -27 60 55
93 77 148 94 44 14 31 18 -19 6z"/>
<path d="M2301 3603 c-6 -21 -10 -74 -9 -118 l1 -80 7 100 c4 55 11 108 15
118 4 9 5 17 2 17 -4 0 -11 -17 -16 -37z"/>
<path d="M1823 3607 l28 -22 -53 3 c-45 2 -58 -1 -83 -23 l-30 -26 32 16 c18
8 47 15 64 15 32 0 32 -1 -19 -26 -53 -26 -105 -81 -138 -144 -39 -75 -27
-278 22 -372 16 -32 16 -32 -23 -17 l-28 10 24 -25 c51 -54 172 -62 247 -16
21 14 44 23 49 22 6 -2 7 -1 3 3 -4 4 4 25 18 46 35 57 47 127 42 253 -4 93
-9 121 -32 170 -33 75 -69 122 -106 141 -42 22 -49 18 -17 -8z m-96 -135 c-24
-26 -21 -32 12 -26 81 17 119 -87 46 -126 -29 -15 -68 -7 -94 21 l-19 21 -16
-31 c-22 -42 -26 -39 -15 10 12 54 25 77 62 117 32 33 52 46 24 14z m199 -315
c8 -21 -13 -65 -36 -77 -17 -9 -22 -7 -31 14 -10 20 -9 30 5 51 18 27 53 34
62 12z"/>
<path d="M3442 3400 c0 -19 2 -27 5 -17 2 9 2 25 0 35 -3 9 -5 1 -5 -18z"/>
<path d="M2027 3285 c3 -32 9 -71 14 -85 l7 -25 1 25 c0 14 -6 52 -14 85 l-14
60 6 -60z"/>
<path d="M3433 3305 c0 -22 2 -30 4 -17 2 12 2 30 0 40 -3 9 -5 -1 -4 -23z"/>
<path d="M3462 3294 c-1 -17 -4 -47 -7 -65 l-5 -34 11 34 c5 18 8 47 6 65 l-4
31 -1 -31z"/>
<path d="M3372 3174 c-6 -32 -10 -59 -8 -61 6 -6 28 95 24 108 -2 6 -9 -15
-16 -47z"/>
<path d="M2078 3183 c-14 -16 -33 -40 -42 -55 -20 -31 -46 -122 -45 -158 1
-28 0 -30 28 67 14 47 35 89 61 122 43 54 41 70 -2 24z"/>
<path d="M2186 3175 c-3 -9 -11 -13 -17 -10 -6 4 -5 -2 3 -14 11 -18 14 -19
24 -6 6 8 15 11 20 7 4 -4 2 2 -6 13 -8 11 -15 21 -16 23 -1 2 -4 -4 -8 -13z"/>
<path d="M2885 3142 c-22 -20 -58 -52 -80 -71 -22 -18 -30 -28 -17 -22 22 12
152 130 142 130 -3 0 -23 -16 -45 -37z"/>
<path d="M2083 3132 c-18 -11 -61 -117 -75 -182 -13 -66 -4 -126 23 -143 19
-12 63 -3 81 17 11 11 18 10 48 -5 44 -24 72 -24 93 -1 23 25 21 50 -7 125
-61 161 -112 221 -163 189z"/>
<path d="M2389 3066 c13 -16 51 -41 51 -33 0 2 -15 14 -32 27 -21 15 -28 17
-19 6z"/>
<path d="M3276 3008 c-15 -40 -40 -97 -56 -125 -21 -41 -24 -50 -11 -43 27 14
43 38 35 51 -4 8 -3 9 4 5 12 -7 73 101 71 126 0 7 -11 -9 -25 -37 -13 -27
-22 -41 -18 -30 30 98 35 118 31 121 -2 3 -17 -28 -31 -68z"/>
<path d="M3339 3042 c-3 -20 -2 -29 4 -23 5 5 7 19 5 32 -3 20 -5 19 -9 -9z"/>
<path d="M1930 3000 c-6 -11 -15 -18 -19 -16 -4 3 -19 -7 -32 -22 l-24 -27 25
22 c14 12 29 21 34 20 5 -1 15 8 24 21 8 12 12 22 9 22 -4 0 -11 -9 -17 -20z"/>
<path d="M2246 2991 c9 -34 64 -149 64 -135 0 6 -5 26 -12 44 -14 42 -62 124
-52 91z"/>
<path d="M1628 2723 c7 -3 16 -2 19 1 4 3 -2 6 -13 5 -11 0 -14 -3 -6 -6z"/>
<path d="M2980 2762 c0 -6 -11 -28 -25 -48 -14 -20 -25 -44 -24 -53 0 -9 5 -4
11 12 5 15 13 25 18 22 10 -6 35 64 26 72 -3 4 -6 1 -6 -5z"/>
<path d="M2930 2496 c0 -8 -16 -28 -35 -45 -20 -17 -31 -31 -24 -31 15 0 69
59 69 76 0 8 -2 14 -5 14 -3 0 -5 -6 -5 -14z"/>
<path d="M2405 2280 c-16 -7 -17 -9 -3 -9 9 -1 20 4 23 9 7 11 7 11 -20 0z"/>
<path d="M2890 2010 c-20 -6 -21 -8 -5 -8 11 0 29 3 40 8 25 11 -1 11 -35 0z"/>
<path d="M2605 1950 l-50 -7 45 -1 c25 -1 52 3 60 8 8 5 11 9 5 8 -5 -1 -32
-4 -60 -8z"/>
<path d="M2088 1943 c7 -3 16 -2 19 1 4 3 -2 6 -13 5 -11 0 -14 -3 -6 -6z"/>
<path d="M2202 1897 c24 -18 80 -62 126 -97 102 -79 133 -100 151 -100 7 0 28
15 47 34 30 30 34 40 34 88 0 77 -14 87 -115 87 -44 0 -111 4 -150 10 -38 6
-85 11 -103 11 l-34 0 44 -33z m160 -2 c151 -23 151 -23 145 -45 -3 -10 0 -21
7 -23 8 -3 8 -8 -1 -17 -10 -11 -20 -10 -55 4 -124 52 -191 77 -194 73 -4 -4
146 -107 183 -126 50 -25 82 -2 83 60 0 37 -14 63 -40 72 -12 4 -11 6 3 6 24
1 57 -35 57 -63 0 -50 -43 -116 -76 -116 -16 0 -214 153 -213 165 0 6 -10 13
-23 17 -23 6 -23 6 -1 7 12 1 69 -6 125 -14z"/>
<path d="M2095 1706 c17 -7 46 -16 65 -19 30 -6 29 -4 -9 8 -66 22 -90 26 -56
11z"/>
<path d="M2615 1700 c27 -12 43 -12 25 0 -8 5 -22 9 -30 9 -10 0 -8 -3 5 -9z"/>
<path d="M2313 1663 c9 -2 23 -2 30 0 6 3 -1 5 -18 5 -16 0 -22 -2 -12 -5z"/>
<path d="M2958 1813 c6 -2 18 -2 25 0 6 3 1 5 -13 5 -14 0 -19 -2 -12 -5z"/>
<path d="M3054 1454 c-21 -15 -40 -27 -42 -29 -2 -1 4 -5 13 -9 9 -3 13 -2 10
3 -3 5 3 12 12 15 25 8 71 46 57 46 -6 0 -29 -12 -50 -26z"/>
<path d="M3607 1586 c4 -13 3 -17 -5 -12 -14 8 -15 -10 -2 -39 8 -18 9 -18 9
5 1 20 3 22 11 10 9 -13 10 -13 10 1 0 8 -7 24 -15 35 -15 18 -15 18 -8 0z"/>
<path d="M3248 1454 c14 -25 51 -59 82 -73 22 -10 22 -10 5 1 -11 7 -37 31
-59 52 -21 22 -34 31 -28 20z"/>
<path d="M3276 1457 c3 -10 9 -15 12 -12 3 3 0 11 -7 18 -10 9 -11 8 -5 -6z"/>
<path d="M1836 1465 c9 -14 26 -31 38 -37 14 -7 10 1 -13 26 -41 42 -48 45
-25 11z"/>
<path d="M2465 1504 l-30 -13 30 6 c32 6 41 11 34 17 -2 2 -17 -2 -34 -10z"/>
<path d="M2338 1163 c7 -3 16 -2 19 1 4 3 -2 6 -13 5 -11 0 -14 -3 -6 -6z"/>
<path d="M3309 939 c-30 -11 -47 -43 -55 -103 -16 -112 104 -94 135 20 10 37
0 84 -18 84 -5 0 -15 2 -23 4 -7 3 -25 0 -39 -5z m41 -54 c0 -22 -29 -75 -40
-75 -13 0 -13 46 0 71 13 23 40 25 40 4z"/>
<path d="M1302 4108 c2 -13 10 -23 18 -23 8 0 16 10 18 23 3 17 -2 22 -18 22
-16 0 -21 -5 -18 -22z"/>
<path d="M3613 4119 c-32 -12 -48 -46 -34 -75 21 -47 94 -39 107 11 10 41 -33
79 -73 64z"/>
<path d="M1112 3884 c-26 -18 -28 -37 -7 -54 24 -20 65 -4 65 25 0 33 -30 49
-58 29z"/>
<path d="M978 3790 c-27 -17 -48 -36 -48 -44 0 -19 23 -44 110 -117 119 -101
114 -98 105 -69 -4 14 -21 54 -38 90 -16 36 -40 89 -53 118 -12 28 -24 52 -26
52 -2 0 -24 -14 -50 -30z"/>
<path d="M3774 3755 c-4 -9 -2 -21 4 -27 15 -15 44 -1 40 19 -4 23 -36 29 -44
8z"/>
<path d="M3975 3510 c-137 -106 -167 -132 -161 -137 3 -3 77 18 165 47 112 35
161 56 161 66 0 8 -17 33 -37 55 l-38 40 -90 -71z"/>
<path d="M775 3357 c-4 -13 -5 -50 -3 -82 4 -71 -21 -68 229 -29 161 25 201
36 187 49 -8 8 -362 85 -389 85 -11 0 -21 -9 -24 -23z"/>
<path d="M3918 3339 c-21 -12 -24 -59 -6 -77 20 -20 56 -14 74 13 15 23 15 27
0 50 -17 26 -40 31 -68 14z"/>
<path d="M4171 1786 c-15 -18 -4 -44 20 -51 24 -8 49 11 49 35 0 29 -49 41
-69 16z"/>
<path d="M4012 1530 c-27 -11 -44 -52 -36 -85 7 -29 21 -41 56 -50 21 -5 33
-1 52 19 35 34 35 78 0 105 -29 23 -38 24 -72 11z"/>
<path d="M1036 1279 c-31 -25 -34 -61 -6 -89 39 -39 110 -11 110 43 0 26 -38
67 -62 67 -8 0 -27 -9 -42 -21z"/>
</g>
</svg>
